HIERARCHY
ROOT Hips
{
  OFFSET 0 0 0
  CHANNELS 6 Xposition Yposition Zposition Zrotation Yrotation Xrotation
  JOINT LeftThigh
  {
    OFFSET 8.409438 0 -5.917753
    CHANNELS 3 Zrotation Yrotation Xrotation
    JOINT LeftLeg
    {
      OFFSET 0 0 -42.358652
      CHANNELS 3 Zrotation Yrotation Xrotation
      JOINT LeftFoot
      {
        OFFSET 0 0 -39.357303
        CHANNELS 3 Zrotation Yrotation Xrotation
      }
    }
  }
  JOINT RightThigh
  {
    OFFSET -8.409438 0 -5.917753
    CHANNELS 3 Zrotation Yrotation Xrotation
    JOINT RightLeg
    {
      OFFSET 0 0 -42.358652
      CHANNELS 3 Zrotation Yrotation Xrotation
      JOINT RightFoot
      {
        OFFSET 0 0 -39.357303
        CHANNELS 3 Zrotation Yrotation Xrotation
      }
    }
  }
  JOINT SpineLow
  {
    OFFSET 0 0 4.719101
    CHANNELS 3 Zrotation Yrotation Xrotation
    JOINT SpineMid
    {
      OFFSET 0 0 12.899191
      CHANNELS 3 Zrotation Yrotation Xrotation
      JOINT Chest
      {
        OFFSET 0 0 12.899191
        CHANNELS 3 Zrotation Yrotation Xrotation
        JOINT LeftShoulder
        {
          OFFSET 7.550562 1.41573 9.438202
          CHANNELS 3 Zrotation Yrotation Xrotation
          JOINT LeftArm
          {
            OFFSET 9.155056 0 4.247191
            CHANNELS 3 Zrotation Yrotation Xrotation
            JOINT LeftForearm
            {
              OFFSET 0 0 25.771955
              CHANNELS 3 Zrotation Yrotation Xrotation
              JOINT LeftHand
              {
                OFFSET 0 0 25.197169
                CHANNELS 3 Zrotation Yrotation Xrotation
              }
            }
          }
        }
        JOINT RightShoulder
        {
          OFFSET -7.550562 1.41573 9.438202
          CHANNELS 3 Zrotation Yrotation Xrotation
          JOINT RightArm
          {
            OFFSET -9.155056 0 4.247191
            CHANNELS 3 Zrotation Yrotation Xrotation
            JOINT RightForearm
            {
              OFFSET 0 0 -25.771955
              CHANNELS 3 Zrotation Yrotation Xrotation
              JOINT RightHand
              {
                OFFSET 0 0 -25.197169
                CHANNELS 3 Zrotation Yrotation Xrotation
              }
            }
          }
        }
        JOINT Neck
        {
          OFFSET 0 0 15.101124
          CHANNELS 3 Zrotation Yrotation Xrotation
          JOINT Head
          {
            OFFSET 0 0 11.325843
            CHANNELS 3 Zrotation Yrotation Xrotation
            End Site
            {
              OFFSET 0 0 14.157303
            }
          }
        }
      }
    }
  }
}
MOTION
Frames: 8
Frame Time: 0.0
0.0  93.25843  0.0  -4.033588  20.814023  -89.656622  -2.099121  -19.398212  -13.895641  -8.303601  4.113703  20.129882  6.462876  0.848538  4.207478  -28.332649  4.07426  -3.745249  -9.376814  4.985173  6.531514  2.147484  1.768998  0.122954  1.333538  -1.773667  -0.7884  3.708576  -4.802297  -2.25585  3.708577  -4.802298  -2.25585  -13.813622  34.906571  -7.027125  125.053304  34.69104  -159.132499  -12.74221  -3.234385  103.317832  74.459979  -7.330601  3.351029  -1.456508  0.502266  19.35746  23.257232  62.117367  -23.342067  -23.145393  -11.313859  -119.284122  56.351823  10.360924  -8.505296  -22.22719  8.940959  9.33012  -16.778172  6.378678  7.322467  
0.0  93.25843  0.0  -3.931077  22.723401  -89.519816  -2.684272  -18.90958  -13.761781  -8.94372  3.51926  19.246405  5.919891  0.697904  4.016785  -28.283318  4.432189  -3.291764  -10.607389  4.750749  6.047988  1.937287  1.727867  0.196733  1.090853  -1.83327  -0.766228  3.044874  -4.974673  -2.180529  3.044874  -4.974673  -2.180529  -10.199705  35.352644  -6.611525  125.849402  33.833455  -161.426994  -12.634853  -4.075929  102.999345  73.822341  -6.252792  3.69967  0.765977  1.647861  18.277393  18.470436  65.019037  -27.229474  -28.823727  -7.229266  -117.110828  59.86887  10.562504  -5.048059  -22.008075  9.296074  9.063633  -16.612575  6.658216  7.131211  
0.0  93.25843  0.0  -3.724655  23.888626  -89.520164  -3.439006  -18.376619  -13.234962  -9.307561  2.942637  18.359465  5.914356  0.489913  4.009985  -27.496227  4.796045  -2.753721  -11.557737  4.621552  5.670327  1.6409  1.746595  0.248008  1.094278  -1.804637  -0.696871  3.048046  -4.899565  -1.989512  3.048046  -4.899565  -1.989511  -7.749832  35.429052  -6.144087  127.35152  33.124341  -163.726449  -12.936043  -3.717447  102.689133  73.312866  -4.986056  4.054297  1.897408  2.207022  16.908623  12.656491  68.166684  -32.237822  -34.306289  -2.421807  -115.019916  62.880278  10.13559  -0.880451  -22.216842  9.355969  8.895914  -16.766519  6.706359  7.01097  
0.0  93.25843  0.0  -3.431042  24.629413  -89.490533  -4.522896  -17.860002  -12.609297  -9.38635  2.435887  17.485365  5.348817  0.37005  3.511577  -26.481708  5.084173  -2.387995  -12.214355  4.752575  5.438892  1.463179  1.727836  0.330052  1.284892  -1.711169  -0.607008  3.560282  -4.643142  -1.752339  3.560281  -4.643142  -1.752339  -6.376738  35.159074  -5.816753  129.345862  32.340291  -166.172978  -13.722562  -2.373745  102.538699  72.931996  -3.613087  4.437852  1.871162  2.492102  15.309091  4.973072  71.362292  -39.478732  -39.280257  2.873419  -113.140379  65.7803  8.628658  4.136454  -22.856886  9.194873  8.742611  -17.242034  6.582236  6.900946  
0.0  93.25843  0.0  -3.136714  24.936563  -89.303387  -5.433957  -17.384215  -12.119846  -9.019514  1.890397  16.850959  5.545295  0.256695  3.536431  -25.53291  5.205017  -2.312798  -12.798476  4.884717  5.311532  1.032357  1.795191  0.326031  1.555784  -1.593407  -0.574053  4.295809  -4.316082  -1.673163  4.295809  -4.316083  -1.673163  -5.263062  34.766327  -5.095937  131.717467  31.532949  -168.757994  -14.878798  -0.502459  102.575062  72.261856  -2.070754  4.571859  1.401475  2.593968  13.936904  -5.918366  74.431374  -50.3276  -43.545487  8.418793  -111.313397  68.620828  5.844782  9.964102  -23.513634  9.041884  8.734745  -17.732538  6.458757  6.900154  
0.0  93.25843  0.0  -2.884176  24.682281  -88.971162  -5.759686  -16.942342  -11.874591  -8.54737  1.341772  16.324309  5.539641  0.185601  3.478372  -24.762576  5.164136  -2.552993  -13.185485  5.117453  5.296627  1.162116  1.889808  0.356456  1.833374  -1.468304  -0.593658  5.052675  -3.96548  -1.734932  5.052675  -3.96548  -1.734932  -3.637198  34.13318  -3.87404  134.470095  30.503301  -171.070393  -16.153849  1.814673  102.607592  71.220183  -0.218588  4.613638  1.120026  2.592425  12.818803  -21.786813  76.974552  -66.485371  -47.117467  14.34701  -109.288039  70.816346  2.386432  16.26705  -23.909069  8.947917  8.832475  -18.029502  6.379046  6.976283  
0.0  93.25843  0.0  -2.649785  23.874075  -88.616234  -5.260874  -16.482209  -11.615679  -8.24074  0.840919  15.794132  5.682692  0.247026  3.498316  -24.228165  5.065923  -3.016015  -13.403877  5.403466  5.384638  1.104679  1.912463  0.30573  2.106616  -1.338767  -0.651655  5.799142  -3.599087  -1.898062  5.799142  -3.599087  -1.898061  -1.377716  33.279572  -2.04358  137.355286  29.187971  -172.926799  -17.808156  4.371893  102.368949  69.695833  1.798964  4.956493  1.21038  2.574957  11.814791  -43.143918  78.522626  -88.233851  -50.290169  20.774263  -106.919693  71.654604  -1.311831  22.61088  -23.96502  8.868168  9.091465  -18.074918  6.308266  7.168412  
0.0  93.25843  0.0  -2.472677  22.528442  -88.251288  -4.240029  -16.057297  -11.280261  -8.112907  0.361234  15.164276  5.591396  0.502224  3.331008  -24.018264  5.020493  -3.823038  -13.264979  5.608168  5.716378  1.663544  2.029707  0.34495  2.18127  -1.118893  -0.814177  6.002959  -2.981677  -2.325764  6.002959  -2.981677  -2.325764  2.620901  31.583755  0.785405  140.45557  27.86921  -174.455284  -20.305064  6.348156  102.83902  66.709722  4.504887  5.302761  2.980059  1.861043  11.375024  -68.185863  78.629782  -113.644767  -53.078241  25.777228  -104.30272  72.540073  -4.782456  28.877712  -23.057353  8.657837  9.864197  -17.40566  6.133953  7.726047  
